<?xml version="1.0" standalone="no"?><!DOCTYPE svg PUBLIC "-//W3C//DTD SVG 1.1//EN" "http://www.w3.org/Graphics/SVG/1.1/DTD/svg11.dtd"><svg t="1694500684879" class="icon" viewBox="0 0 1024 1024" version="1.1" xmlns="http://www.w3.org/2000/svg" p-id="1880" width="32" height="32" xmlns:xlink="http://www.w3.org/1999/xlink"><path d="M704 960H405.333c-12.8 0-21.333-8.533-21.333-21.333V789.333H277.333C264.533 789.333 256 780.8 256 768V616.533L170.667 576c-4.267-2.133-8.534-6.4-10.667-12.8-2.133-4.267-2.133-10.667 0-17.067l53.333-115.2v-6.4C213.333 224 362.667 61.867 544 61.867S874.667 224 874.667 424.533c0 121.6-55.467 236.8-149.334 302.934v209.066C725.333 951.467 716.8 960 704 960z m-277.333-42.667h256v-198.4c0-6.4 4.266-12.8 8.533-17.066l8.533-6.4c83.2-59.734 132.267-160 132.267-268.8 0-177.067-130.133-320-288-320s-288 142.933-288 320v10.666c0 4.267 0 6.4-2.133 8.534l-46.934 100.266 78.934 36.267c8.533 4.267 12.8 10.667 12.8 19.2v142.933h106.666c12.8 0 21.334 8.534 21.334 21.334v151.466z" fill="#d81e06" p-id="1881"></path><path d="M533.333 352c-17.066 0-32-14.933-32-32s14.934-32 32-32 32 14.933 32 32-14.933 32-32 32z m0-42.667c-6.4 0-10.666 4.267-10.666 10.667s4.266 10.667 10.666 10.667S544 326.4 544 320s-4.267-10.667-10.667-10.667z" fill="#d81e06" p-id="1882"></path><path d="M789.333 362.667c0-27.734-19.2-53.334-44.8-61.867C736 249.6 691.2 213.333 640 213.333c-10.667 0-21.333 2.134-29.867 4.267-21.333-17.067-46.933-25.6-76.8-25.6-40.533 0-74.666 19.2-98.133 46.933C369.067 253.867 320 313.6 320 384c0 83.2 66.133 149.333 149.333 149.333 21.334 0 42.667-4.266 61.867-12.8 12.8 8.534 27.733 12.8 44.8 12.8 25.6 0 46.933-10.666 61.867-27.733l8.533-10.667 10.667 6.4c10.666 6.4 23.466 8.534 36.266 8.534 40.534 0 74.667-34.134 74.667-74.667 0-8.533-2.133-17.067-4.267-23.467 14.934-10.666 25.6-27.733 25.6-49.066z m-51.2 17.066C723.2 390.4 716.8 409.6 723.2 426.667c2.133 4.266 2.133 6.4 2.133 10.666 0 17.067-14.933 32-32 32-6.4 0-14.933-2.133-19.2-6.4-19.2-14.933-49.066-10.666-61.866 8.534-8.534 10.666-21.334 19.2-36.267 19.2-8.533 0-14.933-2.134-23.467-6.4-12.8-8.534-27.733-8.534-40.533-2.134s-27.733 8.534-42.667 8.534c-59.733 0-106.666-46.934-106.666-106.667 0-49.067 34.133-91.733 81.066-104.533 8.534-2.134 17.067-6.4 23.467-14.934 17.067-19.2 40.533-32 66.133-32 19.2 0 36.267 6.4 51.2 17.067 10.667 8.533 25.6 10.667 38.4 6.4 6.4-2.133 12.8-2.133 17.067-2.133 32 0 57.6 23.466 64 53.333 2.133 14.933 12.8 27.733 29.867 34.133C742.4 343.467 748.8 352 748.8 362.667c-2.133 6.4-4.267 12.8-10.667 17.066z" fill="#d81e06" p-id="1883"></path><path d="M693.333 362.667h-10.666V352c0-6.4-4.267-10.667-10.667-10.667S661.333 345.6 661.333 352v10.667h-10.666c-6.4 0-10.667 4.266-10.667 10.666S644.267 384 650.667 384h10.666v10.667c0 6.4 4.267 10.666 10.667 10.666s10.667-4.266 10.667-10.666V384h10.666c6.4 0 10.667-4.267 10.667-10.667s-4.267-10.666-10.667-10.666zM480 384h-10.667v-10.667c0-6.4-4.266-10.666-10.666-10.666S448 366.933 448 373.333V384h-10.667c-6.4 0-10.666 4.267-10.666 10.667s4.266 10.666 10.666 10.666H448V416c0 6.4 4.267 10.667 10.667 10.667S469.333 422.4 469.333 416v-10.667H480c6.4 0 10.667-4.266 10.667-10.666S486.4 384 480 384z" fill="#d81e06" p-id="1884"></path><path d="M567.467 486.4l36.266-145.067L452.267 492.8l51.2 51.2L467.2 689.067 618.667 537.6z" fill="#d81e06" p-id="1885"></path></svg>