<?xml version="1.0" standalone="no"?><!DOCTYPE svg PUBLIC "-//W3C//DTD SVG 1.1//EN" "http://www.w3.org/Graphics/SVG/1.1/DTD/svg11.dtd"><svg t="1693406152781" class="icon" viewBox="0 0 1024 1024" version="1.1" xmlns="http://www.w3.org/2000/svg" p-id="1563" width="200" height="200" xmlns:xlink="http://www.w3.org/1999/xlink"><path d="M704 960h-298.666667c-12.8 0-21.333333-8.533333-21.333333-21.333333v-149.333334h-106.666667c-12.8 0-21.333333-8.533333-21.333333-21.333333v-151.466667l-85.333333-40.533333c-4.266667-2.133333-8.533333-6.4-10.666667-12.8-2.133333-4.266667-2.133333-10.666667 0-17.066667l53.333333-115.2v-6.4c0-200.533333 149.333333-362.666667 330.666667-362.666666s330.666667 162.133333 330.666667 362.666666c0 121.6-55.466667 236.8-149.333334 302.933334v209.066666c0 14.933333-8.533333 23.466667-21.333333 23.466667z m-277.333333-42.666667h256v-198.4c0-6.4 4.266667-12.8 8.533333-17.066666l8.533333-6.4c83.2-59.733333 132.266667-160 132.266667-268.8 0-177.066667-130.133333-320-288-320s-288 142.933333-288 320v10.666666c0 4.266667 0 6.4-2.133333 8.533334l-46.933334 100.266666 78.933334 36.266667c8.533333 4.266667 12.8 10.666667 12.8 19.2v142.933333h106.666666c12.8 0 21.333333 8.533333 21.333334 21.333334v151.466666z" fill="#3A3E46" p-id="1564"></path><path d="M533.333333 352c-17.066667 0-32-14.933333-32-32s14.933333-32 32-32 32 14.933333 32 32-14.933333 32-32 32z m0-42.666667c-6.4 0-10.666667 4.266667-10.666666 10.666667s4.266667 10.666667 10.666666 10.666667 10.666667-4.266667 10.666667-10.666667-4.266667-10.666667-10.666667-10.666667z" fill="#FFB724" p-id="1565"></path><path d="M789.333333 362.666667c0-27.733333-19.2-53.333333-44.8-61.866667-8.533333-51.2-53.333333-87.466667-104.533333-87.466667-10.666667 0-21.333333 2.133333-29.866667 4.266667-21.333333-17.066667-46.933333-25.6-76.8-25.6-40.533333 0-74.666667 19.2-98.133333 46.933333-66.133333 14.933333-115.2 74.666667-115.2 145.066667 0 83.2 66.133333 149.333333 149.333333 149.333333 21.333333 0 42.666667-4.266667 61.866667-12.8 12.8 8.533333 27.733333 12.8 44.8 12.8 25.6 0 46.933333-10.666667 61.866667-27.733333l8.533333-10.666667 10.666667 6.4c10.666667 6.4 23.466667 8.533333 36.266666 8.533334 40.533333 0 74.666667-34.133333 74.666667-74.666667 0-8.533333-2.133333-17.066667-4.266667-23.466667 14.933333-10.666667 25.6-27.733333 25.6-49.066666z m-51.2 17.066666c-14.933333 10.666667-21.333333 29.866667-14.933333 46.933334 2.133333 4.266667 2.133333 6.4 2.133333 10.666666 0 17.066667-14.933333 32-32 32-6.4 0-14.933333-2.133333-19.2-6.4-19.2-14.933333-49.066667-10.666667-61.866666 8.533334-8.533333 10.666667-21.333333 19.2-36.266667 19.2-8.533333 0-14.933333-2.133333-23.466667-6.4-12.8-8.533333-27.733333-8.533333-40.533333-2.133334-12.8 6.4-27.733333 8.533333-42.666667 8.533334-59.733333 0-106.666667-46.933333-106.666666-106.666667 0-49.066667 34.133333-91.733333 81.066666-104.533333 8.533333-2.133333 17.066667-6.4 23.466667-14.933334 17.066667-19.2 40.533333-32 66.133333-32 19.2 0 36.266667 6.4 51.2 17.066667 10.666667 8.533333 25.6 10.666667 38.4 6.4 6.4-2.133333 12.8-2.133333 17.066667-2.133333 32 0 57.6 23.466667 64 53.333333 2.133333 14.933333 12.8 27.733333 29.866667 34.133333 8.533333 2.133333 14.933333 10.666667 14.933333 21.333334-2.133333 6.4-4.266667 12.8-10.666667 17.066666z" fill="#3A3E46" p-id="1566"></path><path d="M693.333333 362.666667h-10.666666v-10.666667c0-6.4-4.266667-10.666667-10.666667-10.666667s-10.666667 4.266667-10.666667 10.666667v10.666667h-10.666666c-6.4 0-10.666667 4.266667-10.666667 10.666666s4.266667 10.666667 10.666667 10.666667h10.666666v10.666667c0 6.4 4.266667 10.666667 10.666667 10.666666s10.666667-4.266667 10.666667-10.666666v-10.666667h10.666666c6.4 0 10.666667-4.266667 10.666667-10.666667s-4.266667-10.666667-10.666667-10.666666zM480 384h-10.666667v-10.666667c0-6.4-4.266667-10.666667-10.666666-10.666666s-10.666667 4.266667-10.666667 10.666666v10.666667h-10.666667c-6.4 0-10.666667 4.266667-10.666666 10.666667s4.266667 10.666667 10.666666 10.666666h10.666667v10.666667c0 6.4 4.266667 10.666667 10.666667 10.666667s10.666667-4.266667 10.666666-10.666667v-10.666667h10.666667c6.4 0 10.666667-4.266667 10.666667-10.666666s-4.266667-10.666667-10.666667-10.666667z" fill="#3A3E46" p-id="1567"></path><path d="M567.466667 486.4l36.266666-145.066667-151.466666 151.466667 51.2 51.2-36.266667 145.066667 151.466667-151.466667z" fill="#FFB724" p-id="1568"></path></svg>